<svg xmlns="http://www.w3.org/2000/svg" data-name="Layer 1" viewBox="0 0 130 130" id="hero"><path fill="#424c54" d="M101.75,67.06C97.53,60.31,92,54.74,86,49.6a14.4,14.4,0,0,0-2.19-1.54c-7.13-3.81-12.66-3.42-18.48-3.46V43.36c-7.45.6-10.93,0-19.21,4.72A17,17,0,0,0,44,49.6c-6,5.14-11.5,10.71-15.72,17.46C23,75.41,20,85.3,20.81,95.11a33.56,33.56,0,0,0,10.9,22.3c1.88-1.23.25-.17,1.68-1.09l.33-.22v0a.24.24,0,0,1,0-.08,21.39,21.39,0,0,1-1.07-7.87c0-.1,0-.15,0-.15.38-4,3-8.2,7-9,2.73-.54,5.56.57,7.83,2.19a79.79,79.79,0,0,1,6.22,5.57,12.78,12.78,0,0,0,4.92,3,5.86,5.86,0,0,0,5.45-1,5.08,5.08,0,0,0,1-1.17,5.08,5.08,0,0,0,1,1.17,5.86,5.86,0,0,0,5.45,1,12.78,12.78,0,0,0,4.92-3,79.79,79.79,0,0,1,6.22-5.57c2.27-1.62,5.1-2.73,7.83-2.19,4,.79,6.61,4.94,7,9,0,0,0,.05,0,.15A21.39,21.39,0,0,1,96.31,116a.24.24,0,0,1,0,.08v0l.33.22c1.43.92-.2-.14,1.68,1.09a33.56,33.56,0,0,0,10.9-22.3C110,85.3,107,75.41,101.75,67.06Z"></path><path fill="#f26666" d="M101.75,67.06C97.53,60.31,92,54.74,86,49.6a14.4,14.4,0,0,0-2.19-1.54c-7.13-3.81-12.66-3.42-18.48-3.46V43.36c-7.45.6-10.93,0-19.21,4.72A17,17,0,0,0,44,49.6c-6,5.14-11.5,10.71-15.72,17.46C23,75.41,20,85.3,20.81,95.11a33.56,33.56,0,0,0,10.9,22.3c1.88-1.23.25-.17,1.68-1.09l.33-.22v0a.24.24,0,0,1,0-.08,21.39,21.39,0,0,1-1.07-7.87c0-.1,0-.15,0-.15.38-4,3-8.2,7-9,2.73-.54,5.56.57,7.83,2.19a79.79,79.79,0,0,1,6.22,5.57,12.78,12.78,0,0,0,4.92,3,5.86,5.86,0,0,0,5.45-1,5.08,5.08,0,0,0,1-1.17,5.08,5.08,0,0,0,1,1.17,5.86,5.86,0,0,0,5.45,1,12.78,12.78,0,0,0,4.92-3,79.79,79.79,0,0,1,6.22-5.57c2.27-1.62,5.1-2.73,7.83-2.19,4,.79,6.61,4.94,7,9,0,0,0,.05,0,.15A21.39,21.39,0,0,1,96.31,116a.24.24,0,0,1,0,.08v0l.33.22c1.43.92-.2-.14,1.68,1.09a33.56,33.56,0,0,0,10.9-22.3C110,85.3,107,75.41,101.75,67.06Z"></path><path fill="#e55e5e" d="M32.63,108c1.4-44.7,18-57,18.49-57.37-17.78,10-20.26,41.95-20.62,49.25,0,.07,0,.14,0,.21a3.21,3.21,0,0,1-6.33.55c-1.55-6.47-1.93-14.9,2.61-26.37C30.76,64.16,38.61,55,44,49.6c-6,5.14-11.5,10.71-15.71,17.46C23,75.41,20,85.3,20.81,95.11a33.56,33.56,0,0,0,10.87,22.27,1.26,1.26,0,0,0,2-1.28v0s0,0,0-.08a29.58,29.58,0,0,1-1.07-7.87C32.63,108,32.63,108,32.63,108Z"></path><path fill="#cc5656" d="M98.48,101.78a96.52,96.52,0,0,0-8.85-38.36C87.68,59.2,84.68,53.2,80,51.49c-.49,2-4.25,6.27-3.39,8.35,1.36,3.31-32,4.2-30.62.89.86-2.08,4.48-7.22,4-9.24-4.67,1.71-7.67,7.71-9.62,11.93a96.52,96.52,0,0,0-8.85,38.36,42.94,42.94,0,0,0,1.31,12.84c.17.57.35,1.14.56,1.7l.33-.22v0a.24.24,0,0,1,0-.08,21.39,21.39,0,0,1-1.07-7.87c0-.1,0-.15,0-.15.38-4,3-8.2,7-9,2.73-.54,5.56.57,7.83,2.19a79.79,79.79,0,0,1,6.22,5.57c1.45,1.28,3.06,3.31,4.92,3.82a12.54,12.54,0,0,0,5.69,1.1,19.21,19.21,0,0,0,7.13-1.1c1.86-.51,3.47-2.54,4.92-3.82a79.79,79.79,0,0,1,6.22-5.57c2.27-1.62,5.1-2.73,7.83-2.19,4,.79,6.61,4.94,7,9,0,0,0,.05,0,.15A21.39,21.39,0,0,1,96.31,116a.24.24,0,0,1,0,.08v0l.33.22c.21-.56.39-1.13.56-1.7A42.94,42.94,0,0,0,98.48,101.78Z"></path><path fill="#e55e5e" d="M97.37,108C96,63.27,79.4,51,78.88,50.6c17.78,10,20.26,41.95,20.62,49.25,0,.07,0,.14,0,.21a3.21,3.21,0,0,0,6.33.55c1.55-6.47,1.93-14.9-2.61-26.37C99.24,64.16,91.39,55,86,49.6c6,5.14,11.5,10.71,15.71,17.46C107,75.41,110,85.3,109.19,95.11a33.56,33.56,0,0,1-10.87,22.27,1.26,1.26,0,0,1-2-1.28v0s0,0,0-.08a29.58,29.58,0,0,0,1.07-7.87C97.37,108,97.37,108,97.37,108Z"></path><path fill="#c94f4f" d="M90.31,83.22c.45,2.1.33,6.62-.71,8.5s-3.25,2.8-5.35,3.29-4.31.7-6.2,1.75c-2.64,1.45-4.2,4.28-6.55,6.16a11.4,11.4,0,0,1-13.85,0c-2.22-1.79-3.66-4.35-5.4-6.61s-4.08-4.37-6.93-4.58c-1.87-.14-3.88.55-5.55-.3-2-1-2.42-3.64-2.31-5.86.29-5.93,2.67-11.53,5-17,1.45-3.36,3-6.86,5.84-9.18s6.24-3.07,9.69-3.57a59.71,59.71,0,0,1,20.35.59c2.35.47,5,1.35,5.92,3.56.82,2-.71,3.49-.49,5.39s2.68,3.81,3.34,5.76A93,93,0,0,1,90.31,83.22Z"></path><path fill="#569cd6" d="M84 111.13l-2.82.34-4 .47-3 .36A31.28 31.28 0 0 1 71.89 101c-4-2.49-5.1-10.1-5.1-10.1l2.51-2.57L74.54 83l.85-.87c3.25 2.49 4.5 11.56 4.87 14.85s2 3.73 1.53 6.58S84 111.13 84 111.13zM58.52 101a31.39 31.39 0 0 1-2.29 11.26l-3-.36-6.79-.81s2.64-4.69 2.2-7.54 1.16-3.28 1.53-6.58S51.77 84.65 55 82.16l6.08 6.2 2.52 2.58S62.57 98.55 58.52 101z"></path><path fill="none" d="M37.27,126a21.56,21.56,0,0,0,5.84,1.13C40.41,126.5,37.27,126,37.27,126Z"></path><path fill="#4d8eba" d="M77.18 111.94l-3 .36A31.28 31.28 0 0 1 71.89 101c-4-2.49-5.1-10.1-5.1-10.1l2.51-2.57c.1 1.88.7 7.23 4.25 11 0 0-.64 7.37 3.32 12.18C77 111.65 77.09 111.8 77.18 111.94zM61.1 88.36l2.52 2.58s-1 7.61-5.1 10.1a31.39 31.39 0 0 1-2.29 11.26l-3-.36a4 4 0 0 1 .32-.43c3.95-4.81 3.31-12.18 3.31-12.18C60.4 95.59 61 90.22 61.1 88.36z"></path><path fill="#e55e5e" d="M93.24,129H78.12a1.07,1.07,0,0,1-.71-.28,1.14,1.14,0,0,1-.25-.39,6.51,6.51,0,0,1-.29-1A13.06,13.06,0,0,1,77,122l-5.1-9.66s6.69-4.09,13-2.78c0,0,.11.39.29,1.09a72.53,72.53,0,0,1,1.67,9.59l.09.88s5.83,1.27,7.18,6.08c.06.21.12.42.16.64A1,1,0,0,1,93.24,129Z"></path><path fill="#cc5656" d="M94.26,127.8c0-.22-.1-.43-.16-.64h0c-3.7.35-14.49.27-15-.33-.85-1-1-2.8.37-4.44s7.47-1.3,7.47-1.3l-.09-.88s-5,0-7,0-5.68-3.49-4.71-6.72,9.41-3,9.41-3l.58.18c-.18-.7-.29-1.09-.29-1.09-6.29-1.31-13,2.78-13,2.78L77,122a13.06,13.06,0,0,0-.12,5.36,6.51,6.51,0,0,0,.29,1,1,1,0,0,0,.25.39,1.07,1.07,0,0,0,.71.28H93.24A1,1,0,0,0,94.26,127.8Z"></path><path fill="#e55e5e" d="M36.92,129H52a1,1,0,0,0,.7-.28,1.16,1.16,0,0,0,.26-.39,6.51,6.51,0,0,0,.29-1,13.06,13.06,0,0,0-.12-5.36l5.1-9.66s-6.69-4.09-13-2.78c0,0-.11.39-.29,1.09a72.53,72.53,0,0,0-1.67,9.59l-.09.88s-5.83,1.27-7.18,6.08c-.06.21-.12.42-.16.64A1,1,0,0,0,36.92,129Z"></path><path fill="#cc5656" d="M35.9,127.8c0-.22.1-.43.16-.64h0c3.7.35,14.49.27,15-.33a3.5,3.5,0,0,0-.37-4.44c-1.32-1.64-7.47-1.3-7.47-1.3l.09-.88s5,0,7,0S56,116.67,55,113.44s-9.41-3-9.41-3l-.58.18c.18-.7.29-1.09.29-1.09,6.29-1.31,13,2.78,13,2.78L53.17,122a13.06,13.06,0,0,1,.12,5.36,6.51,6.51,0,0,1-.29,1,1,1,0,0,1-1,.67H36.92A1,1,0,0,1,35.9,127.8Z"></path><path fill="#3884af" d="M52.46,78.45l1,3.83,10.15,8.8,3.22,0,10.3-8.82,1-3.83C65.28,83.59,56.76,80.46,52.46,78.45Z"></path><path fill="#4d8eba" d="M95.46,64.13c-.51-4-6.55-8.62-6.55-8.62-4.34-8-14.26-9-14.89-9.07h0l-8.71,2.37L65,48.74h0l-.25.07L56,46.44h0c-.63.06-10.55,1.07-14.89,9.07,0,0-6,4.66-6.55,8.62C34,68.68,43.83,76.55,46.36,76.92L52,72.83a13.29,13.29,0,0,0,1.11,2.35c3.3,5.5,4.76,6.06,4.76,6.06H72.14s1.46-.56,4.76-6.06A13.29,13.29,0,0,0,78,72.83l5.64,4.09C86.18,76.55,96,68.68,95.46,64.13ZM45.13,66s4.79-1.92,5.64-4.63a29.7,29.7,0,0,0,.82,10.23Zm33.29,5.6a29.7,29.7,0,0,0,.82-10.23c.85,2.71,5.64,4.63,5.64,4.63Z"></path><path fill="#569cd6" d="M34.55,64.13c0,5.91,9.9,12,9.9,12l.71-1.28C41.88,73.05,36,65.93,36.2,64S43,56.5,43,56.5c3-5.74,9.46-7.12,9.46-7.12L56,46.44c-.63.06-10.55,1.07-14.89,9.07C41.1,55.51,34.57,60.14,34.55,64.13Z"></path><polygon fill="#f26666" points="59.14 48.45 52.48 49.38 49.09 47.64 55.72 45.73 58.44 45.73 59.14 48.45"></polygon><path fill="#569cd6" d="M95.46,64.13c0,5.91-9.9,12-9.9,12l-.71-1.28c3.28-1.77,9.13-8.89,9-10.81S87,56.5,87,56.5c-3-5.74-9.46-7.12-9.46-7.12L74,46.44c.63.06,10.55,1.07,14.89,9.07C88.91,55.51,95.44,60.14,95.46,64.13Z"></path><polygon fill="#f26666" points="70.87 48.45 77.53 49.38 80.92 47.64 74.29 45.73 71.57 45.73 70.87 48.45"></polygon><path fill="#ffc850" d="M77,76.36a38.84,38.84,0,0,1-23.51-.49q-.65,2.61-1.3,5.21A42.84,42.84,0,0,0,77,81.93Z"></path><path fill="#fcb72b" d="M68.82,77.37a54.81,54.81,0,0,1-7.25,0,.44.44,0,0,0-.48.45v5.42a.47.47,0,0,0,.43.46,60.24,60.24,0,0,0,7.36,0,.46.46,0,0,0,.42-.46V77.82A.44.44,0,0,0,68.82,77.37Z"></path><path fill="#fcd3be" d="M78.22,80.74c-.29.67-.76-.1-.76-.1s2.81-.86,2.68-3a28.89,28.89,0,0,0,4-.89c-1.25-2.26-2.77-4.34-4.06-6.58l-4,3s-3.85.71-5.26,3.25-.73,4.27,0,4.94a2.48,2.48,0,0,0,2,2.16,2.68,2.68,0,0,0,3.05.41l.07,0c.47.11,3.5.77,3.78-1.3C80,80.39,78.52,80.07,78.22,80.74Z"></path><path fill="#f4beae" d="M78.22,80.74c-.29.67-.76-.1-.76-.1s2.81-.86,2.68-3a28.89,28.89,0,0,0,4-.89c-.28-.51-.58-1-.88-1.5a11.39,11.39,0,0,1-3.87,1L76,73.16c.17.2,2.81,3.31,2.81,3.89s.3,1.45-.63,2A6.71,6.71,0,0,0,76,80.32c-.54.73-.49,1.94.88,2s1.59-1.36,1.94-1.23a1.49,1.49,0,0,1,.33,1.8c-.37.64-1.42,1.43-3.32,1l.07,0c.47.11,3.5.77,3.78-1.3C80,80.39,78.52,80.07,78.22,80.74Z"></path><path fill="#3884af" d="M77.73,71.8l3.62,5.9a15.16,15.16,0,0,0,4.21-1.6l-4.16-7Z"></path><path fill="#fcd3be" d="M51.79,80.74c.29.67.76-.1.76-.1s-2.81-.86-2.68-3a28.89,28.89,0,0,1-3.95-.89c1.25-2.26,2.77-4.34,4.06-6.58l4,3s3.85.71,5.26,3.25.73,4.27,0,4.94a2.48,2.48,0,0,1-2,2.16,2.68,2.68,0,0,1-3,.41l-.07,0c-.47.11-3.5.77-3.78-1.3C50,80.39,51.49,80.07,51.79,80.74Z"></path><path fill="#f4beae" d="M51.79,80.74c.29.67.76-.1.76-.1s-2.81-.86-2.68-3a28.89,28.89,0,0,1-3.95-.89c.28-.51.57-1,.88-1.5a11.39,11.39,0,0,0,3.87,1L54,73.16c-.17.2-2.81,3.31-2.81,3.89s-.3,1.45.63,2A6.71,6.71,0,0,1,54,80.32c.54.73.49,1.94-.88,2s-1.59-1.36-1.94-1.23a1.49,1.49,0,0,0-.33,1.8c.37.64,1.42,1.43,3.32,1l-.07,0c-.47.11-3.5.77-3.78-1.3C50,80.39,51.49,80.07,51.79,80.74Z"></path><path fill="#3884af" d="M52.28,71.8l-3.62,5.9a15.16,15.16,0,0,1-4.21-1.6l4.16-7Z"></path><path fill="#f7c6b0" d="M82.26,23.42a2,2,0,0,0-1.52,0c0-4.19-1.3-15.37-15.61-15.71v0h-.45c-15,.94-15.23,13.26-15,16.87a1.94,1.94,0,0,0-2.3-.5,2.71,2.71,0,0,0-1.37,2.48c0,2.52,2.33,4.5,3,6.94s.63,5.11,2,7.18a9.58,9.58,0,0,0,2.76,2.88c2.23,1.57,3.83,3.81,5.94,5.52a10.65,10.65,0,0,0,3.39,1.85,5.24,5.24,0,0,0,2.17.35,5.38,5.38,0,0,0,2.16-.43,10.45,10.45,0,0,0,3.31-2c2-1.79,3.56-4.09,5.74-5.74a9.79,9.79,0,0,0,2.65-3C80.53,38,80.39,35.29,81,32.89s2.84-4.53,2.75-7A2.69,2.69,0,0,0,82.26,23.42Z"></path><path fill="#424c54" d="M83.05,15.36c-.17-8.82-8.48-10.87-8.48-10.87S71.18.06,61.3,1.18A14.14,14.14,0,0,0,49.85,8.61c-1.82,3.07-1.25,3.2-1.71,5-2,8.14,2,16.84,2,16.84L50.78,18s5.92.23,9.19-3.9c2.15-2.71,3.32-2.92,5.16-2.77a4.55,4.55,0,0,1,.83,1A3,3,0,0,1,66.32,15a2,2,0,0,1-2.19,1.27,3.19,3.19,0,0,0,3.33,2.13,5.44,5.44,0,0,0,3.86-2.78,13.36,13.36,0,0,0,.93-3.44A15.68,15.68,0,0,1,76,14a4.92,4.92,0,0,1,1.85,2.28l.91,2.32a5.24,5.24,0,0,1,.31,1.24l1.17,10.28A33.92,33.92,0,0,0,83.05,15.36Z"></path><path fill="#eaada0" d="M60.07 40.94a5.18 5.18 0 0 0 10.22-.16zM62.92 36.31a2.21 2.21 0 0 0 4.37-.06z"></path><ellipse cx="71.16" cy="28.61" fill="#424c54" rx="1.77" ry="2.29" transform="rotate(-.89 71.237 28.88)"></ellipse><path fill="#424c54" d="M67.58,27.83a5.18,5.18,0,0,1,7.32-.21A9.86,9.86,0,0,0,67.58,27.83Z"></path><circle cx="70.33" cy="28.61" r=".56" fill="#f0f5f9" transform="rotate(-.89 70.594 28.875)"></circle><ellipse cx="58.61" cy="28.8" fill="#424c54" rx="1.77" ry="2.29" transform="rotate(-.89 59.006 28.785)"></ellipse><path fill="#424c54" d="M62.16,27.92a5.17,5.17,0,0,0-7.32,0A9.87,9.87,0,0,1,62.16,27.92Z"></path><circle cx="59.44" cy="28.78" r=".56" fill="#f0f5f9" transform="rotate(-.89 59.65 28.79)"></circle><path fill="#424c54" d="M67.58 23.63s3.59-5.06 8.06-.81c0 0-4.93-1.58-7.4 2.09zM63.13 23.7s-3.75-4.94-8.09-.56c0 0 4.88-1.73 7.46 1.86z"></path><path fill="#e55e5e" d="M76.21,59.21l-4.32-3.9a.35.35,0,0,0-.22-.08H58.24a.35.35,0,0,0-.24.1l-4,4.11a.33.33,0,0,0,0,.43L64.73,73a.34.34,0,0,0,.51,0l11-13.38A.34.34,0,0,0,76.21,59.21Z"></path><polygon fill="#ffc850" points="55.87 59.74 58.78 56.78 71.22 56.78 74.32 59.58 65.02 70.89 55.87 59.74"></polygon><path fill="#ffc850" d="M74.32,59.58,72,62.46l-2.12,2.59-.76.91-1.24,1.51L65,70.89l-6.26-7.63-1.29-1.57h0l-1.6-1.94,2.91-3H71.22l.93.83Z"></path><polygon fill="#fcb72b" points="74.32 59.58 65.02 70.89 64.62 70.41 73.53 59.58 70.43 56.78 71.22 56.78 74.32 59.58"></polygon><path fill="#cc5656" d="M68.78 66.15l.29-.19-1.24 1.51h-5.6L60.37 65h3.07a2 2 0 0 1 1.57.77l.26.34zM61.48 59.6a1.83 1.83 0 0 0 1.82 1.07h6.16A2.9 2.9 0 0 1 72 62.46l-2.12 2.59c.09-.37-.06-.79-.8-1.21 0 0-8 0-10.27-.58a1.79 1.79 0 0 1-.54-.22 1.91 1.91 0 0 1-.75-1.35h0a1.8 1.8 0 0 1 .05-.62 5.69 5.69 0 0 1 3-4.27H71.22l.93.83V60h-3a4.18 4.18 0 0 0-4.54-2.88C61.12 57.6 61.23 58.92 61.48 59.6z"></path><path fill="#fcd462" d="M69.39,56.78v1.16s-.18-.8-1.43-1.14Z"></path><path fill="#e55e5e" d="M68.87,60.67H62.71a1.82,1.82,0,0,1-1.82-1.07c-.25-.68-.36-2,3.15-2.49A4.18,4.18,0,0,1,68.58,60h3V57.11l.35-.48L70,56.27l-9.73.29a5.91,5.91,0,0,0-3.35,4.5,1.85,1.85,0,0,0,.7,2c1.08.86,10.81.81,10.81.81,2,1.12-.25,2.31-.25,2.31H64.68l-.26-.34A2,2,0,0,0,62.85,65H59.78l1.86,2.43h6.72l3.28-4.13A3.16,3.16,0,0,0,68.87,60.67Z"></path><path fill="#303a44" d="M80,17.93a12,12,0,0,0-1.9-4.43c-1.63-2.47-7-3.53-7-3.53l-.07,1.69c-1,5.22-4.52,5.22-4.52,5.22,2.47-1.84.71-5.15-.28-6.63s-5.42-1.41-8,2.47S49.76,16,49.76,16l.36,14.45L50.78,18s5.92.23,9.19-3.9c2.15-2.71,3.32-2.92,5.16-2.77a4.55,4.55,0,0,1,.83,1A3,3,0,0,1,66.32,15a2,2,0,0,1-2.19,1.27,3.19,3.19,0,0,0,3.33,2.13,5.44,5.44,0,0,0,3.86-2.78,13.36,13.36,0,0,0,.93-3.44,15.39,15.39,0,0,1,3.12,1.45A6.38,6.38,0,0,1,78,16.73l.65,1.65A6.1,6.1,0,0,1,79.08,20l1.15,10.08Z"></path></svg>